<?xml version="1.0" encoding="UTF-8"?><svg id="_圖層_1" xmlns="http://www.w3.org/2000/svg" viewBox="0 0 385.45 265"><defs><style>.cls-1,.cls-2{fill:#333;}.cls-2{fill-rule:evenodd;}</style></defs><path class="cls-1" d="M265.83,251.75c-65.96,0-119.63-53.49-119.63-119.25S199.87,13.25,265.83,13.25s119.62,53.49,119.62,119.25-53.66,119.25-119.62,119.25Zm0-226.45c-59.32,0-107.58,48.09-107.58,107.2s48.26,107.2,107.58,107.2,107.57-48.09,107.57-107.2-48.26-107.2-107.57-107.2Z"/><path class="cls-2" d="M132.92,265c73.41,0,132.92-59.32,132.92-132.5S206.32,0,132.92,0,0,59.32,0,132.5s59.51,132.5,132.92,132.5Z"/></svg>